<svg width="18" height="17" fill="none" xmlns="http://www.w3.org/2000/svg"><path d="M9 3.953L7.638 2.557l-.001-.001a3.738 3.738 0 00-5.333 0 3.875 3.875 0 000 5.438h0l6.475 6.557.222.225.223-.225 6.475-6.556h0a3.875 3.875 0 000-5.439 3.731 3.731 0 00-2.666-1.119s0 0 0 0v.313M9 3.953l1.357-1.384h0l.224.219M9 3.953l1.356-1.383M9.001 3.953l1.356-1.383m2.675-.82a3.4 3.4 0 00-2.45 1.038m2.45-1.038a3.418 3.418 0 012.444 1.025L13.032 1.75zm-2.45 1.038l-.225-.218m.225.218l-.225-.218M13.032.813h0a4.356 4.356 0 00-3.115 1.306v.001l-.695.7L9 3.044l-.22-.224-.694-.7h-.001a4.369 4.369 0 00-6.23 0L13.033.812zm0 0a4.37 4.37 0 013.114 1.306 4.513 4.513 0 010 6.324s0 0 0 0L9 15.68M13.032.813L9 15.68m0 0L1.855 8.444s0 0 0 0a4.512 4.512 0 010-6.325L9 15.68z" fill="#BDBDBD" stroke="#fff" stroke-width=".625"/></svg>